<svg xmlns="http://www.w3.org/2000/svg" viewBox="0 0 512 512">
  <defs>
    <linearGradient id="grad1" x1="0%" y1="0%" x2="100%" y2="100%">
      <stop offset="0%" style="stop-color:#6366f1;stop-opacity:1" />
      <stop offset="100%" style="stop-color:#a855f7;stop-opacity:1" />
    </linearGradient>
  </defs>
  <!-- Background circle -->
  <circle cx="256" cy="256" r="240" fill="url(#grad1)"/>
  <!-- Inner glow -->
  <circle cx="256" cy="256" r="200" fill="rgba(255,255,255,0.1)"/>
  <!-- Stylized "P" for Pratyaksha with journal/brain motif -->
  <path d="M180 140 L180 372 L220 372 L220 280 L280 280 C340 280 380 240 380 200 C380 160 340 140 280 140 L180 140 Z M220 180 L270 180 C310 180 340 190 340 210 C340 230 310 240 270 240 L220 240 L220 180 Z" fill="white"/>
  <!-- Decorative dots representing thoughts/insights -->
  <circle cx="320" cy="320" r="15" fill="rgba(255,255,255,0.8)"/>
  <circle cx="360" cy="280" r="10" fill="rgba(255,255,255,0.6)"/>
  <circle cx="380" cy="340" r="8" fill="rgba(255,255,255,0.4)"/>
</svg>
